# Brain structure mesh: Right Amygdala
v 22.0 -6.0 -8.0
v 22.0 -6.0 -8.0
v 22.0 -6.0 -8.0
v 22.0 -6.0 -8.0
v 22.0 -6.0 -8.0
v 22.0 -6.0 -8.0
v 22.0 -6.0 -8.0
v 22.0 -6.0 -8.0
v 22.0 -6.0 -8.0
v 22.0 -6.0 -8.0
v 22.0 -6.0 -8.0
v 22.0 -6.0 -8.0
v 22.0 -6.0 -8.0
v 22.0 -6.0 -8.0
v 22.0 -6.0 -8.0
v 22.0 -6.0 -8.0
v 22.0 -6.0 -8.0
v 22.0 -6.0 -8.0
v 23.78 -6.0 -8.2
v 23.67 -5.32 -8.2
v 23.36 -4.71 -8.2
v 22.89 -4.27 -8.2
v 22.31 -4.03 -8.2
v 21.69 -4.03 -8.2
v 21.11 -4.27 -8.2
v 20.64 -4.71 -8.2
v 20.33 -5.32 -8.2
v 20.22 -6.0 -8.2
v 20.33 -6.68 -8.2
v 20.64 -7.29 -8.2
v 21.11 -7.73 -8.2
v 21.69 -7.97 -8.2
v 22.31 -7.97 -8.2
v 22.89 -7.73 -8.2
v 23.36 -7.29 -8.2
v 23.67 -6.68 -8.2
v 25.47 -6.0 -8.79
v 25.26 -4.66 -8.79
v 24.66 -3.49 -8.79
v 23.74 -2.62 -8.79
v 22.6 -2.15 -8.79
v 21.4 -2.15 -8.79
v 20.26 -2.62 -8.79
v 19.34 -3.49 -8.79
v 18.74 -4.66 -8.79
v 18.53 -6.0 -8.79
v 18.74 -7.34 -8.79
v 19.34 -8.51 -8.79
v 20.26 -9.38 -8.79
v 21.4 -9.85 -8.79
v 22.6 -9.85 -8.79
v 23.74 -9.38 -8.79
v 24.66 -8.51 -8.79
v 25.26 -7.34 -8.79
v 26.99 -6.0 -9.75
v 26.69 -4.08 -9.75
v 25.82 -2.39 -9.75
v 24.49 -1.14 -9.75
v 22.87 -0.47 -9.75
v 21.13 -0.47 -9.75
v 19.51 -1.14 -9.75
v 18.18 -2.39 -9.75
v 17.31 -4.08 -9.75
v 17.01 -6.0 -9.75
v 17.31 -7.92 -9.75
v 18.18 -9.61 -9.75
v 19.51 -10.86 -9.75
v 21.13 -11.53 -9.75
v 22.87 -11.53 -9.75
v 24.49 -10.86 -9.75
v 25.82 -9.61 -9.75
v 26.69 -7.92 -9.75
v 28.25 -6.0 -11.01
v 27.88 -3.59 -11.01
v 26.79 -1.48 -11.01
v 25.13 0.09 -11.01
v 23.09 0.93 -11.01
v 20.91 0.93 -11.01
v 18.87 0.09 -11.01
v 17.21 -1.48 -11.01
v 16.12 -3.59 -11.01
v 15.75 -6.0 -11.01
v 16.12 -8.41 -11.01
v 17.21 -10.52 -11.01
v 18.87 -12.09 -11.01
v 20.91 -12.93 -11.01
v 23.09 -12.93 -11.01
v 25.13 -12.09 -11.01
v 26.79 -10.52 -11.01
v 27.88 -8.41 -11.01
v 29.21 -6.0 -12.53
v 28.77 -3.23 -12.53
v 27.52 -0.79 -12.53
v 25.6 1.02 -12.53
v 23.25 1.99 -12.53
v 20.75 1.99 -12.53
v 18.4 1.02 -12.53
v 16.48 -0.79 -12.53
v 15.23 -3.23 -12.53
v 14.79 -6.0 -12.53
v 15.23 -8.77 -12.53
v 16.48 -11.21 -12.53
v 18.4 -13.02 -12.53
v 20.75 -13.99 -12.53
v 23.25 -13.99 -12.53
v 25.6 -13.02 -12.53
v 27.52 -11.21 -12.53
v 28.77 -8.77 -12.53
v 29.8 -6.0 -14.22
v 29.33 -3.0 -14.22
v 27.97 -0.36 -14.22
v 25.9 1.6 -14.22
v 23.35 2.64 -14.22
v 20.65 2.64 -14.22
v 18.1 1.6 -14.22
v 16.03 -0.36 -14.22
v 14.67 -3.0 -14.22
v 14.2 -6.0 -14.22
v 14.67 -9.0 -14.22
v 16.03 -11.64 -14.22
v 18.1 -13.6 -14.22
v 20.65 -14.64 -14.22
v 23.35 -14.64 -14.22
v 25.9 -13.6 -14.22
v 27.97 -11.64 -14.22
v 29.33 -9.0 -14.22
v 30.0 -6.0 -16.0
v 29.52 -2.92 -16.0
v 28.13 -0.21 -16.0
v 26.0 1.79 -16.0
v 23.39 2.86 -16.0
v 20.61 2.86 -16.0
v 18.0 1.79 -16.0
v 15.87 -0.21 -16.0
v 14.48 -2.92 -16.0
v 14.0 -6.0 -16.0
v 14.48 -9.08 -16.0
v 15.87 -11.79 -16.0
v 18.0 -13.79 -16.0
v 20.61 -14.86 -16.0
v 23.39 -14.86 -16.0
v 26.0 -13.79 -16.0
v 28.13 -11.79 -16.0
v 29.52 -9.08 -16.0
v 29.8 -6.0 -17.78
v 29.33 -3.0 -17.78
v 27.97 -0.36 -17.78
v 25.9 1.6 -17.78
v 23.35 2.64 -17.78
v 20.65 2.64 -17.78
v 18.1 1.6 -17.78
v 16.03 -0.36 -17.78
v 14.67 -3.0 -17.78
v 14.2 -6.0 -17.78
v 14.67 -9.0 -17.78
v 16.03 -11.64 -17.78
v 18.1 -13.6 -17.78
v 20.65 -14.64 -17.78
v 23.35 -14.64 -17.78
v 25.9 -13.6 -17.78
v 27.97 -11.64 -17.78
v 29.33 -9.0 -17.78
v 29.21 -6.0 -19.47
v 28.77 -3.23 -19.47
v 27.52 -0.79 -19.47
v 25.6 1.02 -19.47
v 23.25 1.99 -19.47
v 20.75 1.99 -19.47
v 18.4 1.02 -19.47
v 16.48 -0.79 -19.47
v 15.23 -3.23 -19.47
v 14.79 -6.0 -19.47
v 15.23 -8.77 -19.47
v 16.48 -11.21 -19.47
v 18.4 -13.02 -19.47
v 20.75 -13.99 -19.47
v 23.25 -13.99 -19.47
v 25.6 -13.02 -19.47
v 27.52 -11.21 -19.47
v 28.77 -8.77 -19.47
v 28.25 -6.0 -20.99
v 27.88 -3.59 -20.99
v 26.79 -1.48 -20.99
v 25.13 0.09 -20.99
v 23.09 0.93 -20.99
v 20.91 0.93 -20.99
v 18.87 0.09 -20.99
v 17.21 -1.48 -20.99
v 16.12 -3.59 -20.99
v 15.75 -6.0 -20.99
v 16.12 -8.41 -20.99
v 17.21 -10.52 -20.99
v 18.87 -12.09 -20.99
v 20.91 -12.93 -20.99
v 23.09 -12.93 -20.99
v 25.13 -12.09 -20.99
v 26.79 -10.52 -20.99
v 27.88 -8.41 -20.99
v 26.99 -6.0 -22.25
v 26.69 -4.08 -22.25
v 25.82 -2.39 -22.25
v 24.49 -1.14 -22.25
v 22.87 -0.47 -22.25
v 21.13 -0.47 -22.25
v 19.51 -1.14 -22.25
v 18.18 -2.39 -22.25
v 17.31 -4.08 -22.25
v 17.01 -6.0 -22.25
v 17.31 -7.92 -22.25
v 18.18 -9.61 -22.25
v 19.51 -10.86 -22.25
v 21.13 -11.53 -22.25
v 22.87 -11.53 -22.25
v 24.49 -10.86 -22.25
v 25.82 -9.61 -22.25
v 26.69 -7.92 -22.25
v 25.47 -6.0 -23.21
v 25.26 -4.66 -23.21
v 24.66 -3.49 -23.21
v 23.74 -2.62 -23.21
v 22.6 -2.15 -23.21
v 21.4 -2.15 -23.21
v 20.26 -2.62 -23.21
v 19.34 -3.49 -23.21
v 18.74 -4.66 -23.21
v 18.53 -6.0 -23.21
v 18.74 -7.34 -23.21
v 19.34 -8.51 -23.21
v 20.26 -9.38 -23.21
v 21.4 -9.85 -23.21
v 22.6 -9.85 -23.21
v 23.74 -9.38 -23.21
v 24.66 -8.51 -23.21
v 25.26 -7.34 -23.21
v 23.78 -6.0 -23.8
v 23.67 -5.32 -23.8
v 23.36 -4.71 -23.8
v 22.89 -4.27 -23.8
v 22.31 -4.03 -23.8
v 21.69 -4.03 -23.8
v 21.11 -4.27 -23.8
v 20.64 -4.71 -23.8
v 20.33 -5.32 -23.8
v 20.22 -6.0 -23.8
v 20.33 -6.68 -23.8
v 20.64 -7.29 -23.8
v 21.11 -7.73 -23.8
v 21.69 -7.97 -23.8
v 22.31 -7.97 -23.8
v 22.89 -7.73 -23.8
v 23.36 -7.29 -23.8
v 23.67 -6.68 -23.8
v 22.0 -6.0 -24.0
v 22.0 -6.0 -24.0
v 22.0 -6.0 -24.0
v 22.0 -6.0 -24.0
v 22.0 -6.0 -24.0
v 22.0 -6.0 -24.0
v 22.0 -6.0 -24.0
v 22.0 -6.0 -24.0
v 22.0 -6.0 -24.0
v 22.0 -6.0 -24.0
v 22.0 -6.0 -24.0
v 22.0 -6.0 -24.0
v 22.0 -6.0 -24.0
v 22.0 -6.0 -24.0
v 22.0 -6.0 -24.0
v 22.0 -6.0 -24.0
v 22.0 -6.0 -24.0
v 22.0 -6.0 -24.0
f 1 2 20
f 1 20 19
f 2 3 21
f 2 21 20
f 3 4 22
f 3 22 21
f 4 5 23
f 4 23 22
f 5 6 24
f 5 24 23
f 6 7 25
f 6 25 24
f 7 8 26
f 7 26 25
f 8 9 27
f 8 27 26
f 9 10 28
f 9 28 27
f 10 11 29
f 10 29 28
f 11 12 30
f 11 30 29
f 12 13 31
f 12 31 30
f 13 14 32
f 13 32 31
f 14 15 33
f 14 33 32
f 15 16 34
f 15 34 33
f 16 17 35
f 16 35 34
f 17 18 36
f 17 36 35
f 18 1 19
f 18 19 36
f 19 20 38
f 19 38 37
f 20 21 39
f 20 39 38
f 21 22 40
f 21 40 39
f 22 23 41
f 22 41 40
f 23 24 42
f 23 42 41
f 24 25 43
f 24 43 42
f 25 26 44
f 25 44 43
f 26 27 45
f 26 45 44
f 27 28 46
f 27 46 45
f 28 29 47
f 28 47 46
f 29 30 48
f 29 48 47
f 30 31 49
f 30 49 48
f 31 32 50
f 31 50 49
f 32 33 51
f 32 51 50
f 33 34 52
f 33 52 51
f 34 35 53
f 34 53 52
f 35 36 54
f 35 54 53
f 36 19 37
f 36 37 54
f 37 38 56
f 37 56 55
f 38 39 57
f 38 57 56
f 39 40 58
f 39 58 57
f 40 41 59
f 40 59 58
f 41 42 60
f 41 60 59
f 42 43 61
f 42 61 60
f 43 44 62
f 43 62 61
f 44 45 63
f 44 63 62
f 45 46 64
f 45 64 63
f 46 47 65
f 46 65 64
f 47 48 66
f 47 66 65
f 48 49 67
f 48 67 66
f 49 50 68
f 49 68 67
f 50 51 69
f 50 69 68
f 51 52 70
f 51 70 69
f 52 53 71
f 52 71 70
f 53 54 72
f 53 72 71
f 54 37 55
f 54 55 72
f 55 56 74
f 55 74 73
f 56 57 75
f 56 75 74
f 57 58 76
f 57 76 75
f 58 59 77
f 58 77 76
f 59 60 78
f 59 78 77
f 60 61 79
f 60 79 78
f 61 62 80
f 61 80 79
f 62 63 81
f 62 81 80
f 63 64 82
f 63 82 81
f 64 65 83
f 64 83 82
f 65 66 84
f 65 84 83
f 66 67 85
f 66 85 84
f 67 68 86
f 67 86 85
f 68 69 87
f 68 87 86
f 69 70 88
f 69 88 87
f 70 71 89
f 70 89 88
f 71 72 90
f 71 90 89
f 72 55 73
f 72 73 90
f 73 74 92
f 73 92 91
f 74 75 93
f 74 93 92
f 75 76 94
f 75 94 93
f 76 77 95
f 76 95 94
f 77 78 96
f 77 96 95
f 78 79 97
f 78 97 96
f 79 80 98
f 79 98 97
f 80 81 99
f 80 99 98
f 81 82 100
f 81 100 99
f 82 83 101
f 82 101 100
f 83 84 102
f 83 102 101
f 84 85 103
f 84 103 102
f 85 86 104
f 85 104 103
f 86 87 105
f 86 105 104
f 87 88 106
f 87 106 105
f 88 89 107
f 88 107 106
f 89 90 108
f 89 108 107
f 90 73 91
f 90 91 108
f 91 92 110
f 91 110 109
f 92 93 111
f 92 111 110
f 93 94 112
f 93 112 111
f 94 95 113
f 94 113 112
f 95 96 114
f 95 114 113
f 96 97 115
f 96 115 114
f 97 98 116
f 97 116 115
f 98 99 117
f 98 117 116
f 99 100 118
f 99 118 117
f 100 101 119
f 100 119 118
f 101 102 120
f 101 120 119
f 102 103 121
f 102 121 120
f 103 104 122
f 103 122 121
f 104 105 123
f 104 123 122
f 105 106 124
f 105 124 123
f 106 107 125
f 106 125 124
f 107 108 126
f 107 126 125
f 108 91 109
f 108 109 126
f 109 110 128
f 109 128 127
f 110 111 129
f 110 129 128
f 111 112 130
f 111 130 129
f 112 113 131
f 112 131 130
f 113 114 132
f 113 132 131
f 114 115 133
f 114 133 132
f 115 116 134
f 115 134 133
f 116 117 135
f 116 135 134
f 117 118 136
f 117 136 135
f 118 119 137
f 118 137 136
f 119 120 138
f 119 138 137
f 120 121 139
f 120 139 138
f 121 122 140
f 121 140 139
f 122 123 141
f 122 141 140
f 123 124 142
f 123 142 141
f 124 125 143
f 124 143 142
f 125 126 144
f 125 144 143
f 126 109 127
f 126 127 144
f 127 128 146
f 127 146 145
f 128 129 147
f 128 147 146
f 129 130 148
f 129 148 147
f 130 131 149
f 130 149 148
f 131 132 150
f 131 150 149
f 132 133 151
f 132 151 150
f 133 134 152
f 133 152 151
f 134 135 153
f 134 153 152
f 135 136 154
f 135 154 153
f 136 137 155
f 136 155 154
f 137 138 156
f 137 156 155
f 138 139 157
f 138 157 156
f 139 140 158
f 139 158 157
f 140 141 159
f 140 159 158
f 141 142 160
f 141 160 159
f 142 143 161
f 142 161 160
f 143 144 162
f 143 162 161
f 144 127 145
f 144 145 162
f 145 146 164
f 145 164 163
f 146 147 165
f 146 165 164
f 147 148 166
f 147 166 165
f 148 149 167
f 148 167 166
f 149 150 168
f 149 168 167
f 150 151 169
f 150 169 168
f 151 152 170
f 151 170 169
f 152 153 171
f 152 171 170
f 153 154 172
f 153 172 171
f 154 155 173
f 154 173 172
f 155 156 174
f 155 174 173
f 156 157 175
f 156 175 174
f 157 158 176
f 157 176 175
f 158 159 177
f 158 177 176
f 159 160 178
f 159 178 177
f 160 161 179
f 160 179 178
f 161 162 180
f 161 180 179
f 162 145 163
f 162 163 180
f 163 164 182
f 163 182 181
f 164 165 183
f 164 183 182
f 165 166 184
f 165 184 183
f 166 167 185
f 166 185 184
f 167 168 186
f 167 186 185
f 168 169 187
f 168 187 186
f 169 170 188
f 169 188 187
f 170 171 189
f 170 189 188
f 171 172 190
f 171 190 189
f 172 173 191
f 172 191 190
f 173 174 192
f 173 192 191
f 174 175 193
f 174 193 192
f 175 176 194
f 175 194 193
f 176 177 195
f 176 195 194
f 177 178 196
f 177 196 195
f 178 179 197
f 178 197 196
f 179 180 198
f 179 198 197
f 180 163 181
f 180 181 198
f 181 182 200
f 181 200 199
f 182 183 201
f 182 201 200
f 183 184 202
f 183 202 201
f 184 185 203
f 184 203 202
f 185 186 204
f 185 204 203
f 186 187 205
f 186 205 204
f 187 188 206
f 187 206 205
f 188 189 207
f 188 207 206
f 189 190 208
f 189 208 207
f 190 191 209
f 190 209 208
f 191 192 210
f 191 210 209
f 192 193 211
f 192 211 210
f 193 194 212
f 193 212 211
f 194 195 213
f 194 213 212
f 195 196 214
f 195 214 213
f 196 197 215
f 196 215 214
f 197 198 216
f 197 216 215
f 198 181 199
f 198 199 216
f 199 200 218
f 199 218 217
f 200 201 219
f 200 219 218
f 201 202 220
f 201 220 219
f 202 203 221
f 202 221 220
f 203 204 222
f 203 222 221
f 204 205 223
f 204 223 222
f 205 206 224
f 205 224 223
f 206 207 225
f 206 225 224
f 207 208 226
f 207 226 225
f 208 209 227
f 208 227 226
f 209 210 228
f 209 228 227
f 210 211 229
f 210 229 228
f 211 212 230
f 211 230 229
f 212 213 231
f 212 231 230
f 213 214 232
f 213 232 231
f 214 215 233
f 214 233 232
f 215 216 234
f 215 234 233
f 216 199 217
f 216 217 234
f 217 218 236
f 217 236 235
f 218 219 237
f 218 237 236
f 219 220 238
f 219 238 237
f 220 221 239
f 220 239 238
f 221 222 240
f 221 240 239
f 222 223 241
f 222 241 240
f 223 224 242
f 223 242 241
f 224 225 243
f 224 243 242
f 225 226 244
f 225 244 243
f 226 227 245
f 226 245 244
f 227 228 246
f 227 246 245
f 228 229 247
f 228 247 246
f 229 230 248
f 229 248 247
f 230 231 249
f 230 249 248
f 231 232 250
f 231 250 249
f 232 233 251
f 232 251 250
f 233 234 252
f 233 252 251
f 234 217 235
f 234 235 252
f 235 236 254
f 235 254 253
f 236 237 255
f 236 255 254
f 237 238 256
f 237 256 255
f 238 239 257
f 238 257 256
f 239 240 258
f 239 258 257
f 240 241 259
f 240 259 258
f 241 242 260
f 241 260 259
f 242 243 261
f 242 261 260
f 243 244 262
f 243 262 261
f 244 245 263
f 244 263 262
f 245 246 264
f 245 264 263
f 246 247 265
f 246 265 264
f 247 248 266
f 247 266 265
f 248 249 267
f 248 267 266
f 249 250 268
f 249 268 267
f 250 251 269
f 250 269 268
f 251 252 270
f 251 270 269
f 252 235 253
f 252 253 270
