# Brain structure mesh: Right Caudate
v 13.0 10.0 22.0
v 13.0 10.0 22.0
v 13.0 10.0 22.0
v 13.0 10.0 22.0
v 13.0 10.0 22.0
v 13.0 10.0 22.0
v 13.0 10.0 22.0
v 13.0 10.0 22.0
v 13.0 10.0 22.0
v 13.0 10.0 22.0
v 13.0 10.0 22.0
v 13.0 10.0 22.0
v 13.0 10.0 22.0
v 13.0 10.0 22.0
v 13.0 10.0 22.0
v 13.0 10.0 22.0
v 13.0 10.0 22.0
v 13.0 10.0 22.0
v 15.0 10.0 21.7
v 14.88 11.22 21.7
v 14.53 12.29 21.7
v 14.0 13.08 21.7
v 13.35 13.51 21.7
v 12.65 13.51 21.7
v 12.0 13.08 21.7
v 11.47 12.29 21.7
v 11.12 11.22 21.7
v 11.0 10.0 21.7
v 11.12 8.78 21.7
v 11.47 7.71 21.7
v 12.0 6.92 21.7
v 12.65 6.49 21.7
v 13.35 6.49 21.7
v 14.0 6.92 21.7
v 14.53 7.71 21.7
v 14.88 8.78 21.7
v 16.9 10.0 20.81
v 16.67 12.37 20.81
v 15.99 14.46 20.81
v 14.95 16.01 20.81
v 13.68 16.84 20.81
v 12.32 16.84 20.81
v 11.05 16.01 20.81
v 10.01 14.46 20.81
v 9.33 12.37 20.81
v 9.1 10.0 20.81
v 9.33 7.63 20.81
v 10.01 5.54 20.81
v 11.05 3.99 20.81
v 12.32 3.16 20.81
v 13.68 3.16 20.81
v 14.95 3.99 20.81
v 15.99 5.54 20.81
v 16.67 7.63 20.81
v 18.61 10.0 19.38
v 18.27 13.41 19.38
v 17.3 16.41 19.38
v 15.81 18.64 19.38
v 13.97 19.82 19.38
v 12.03 19.82 19.38
v 10.19 18.64 19.38
v 8.7 16.41 19.38
v 7.73 13.41 19.38
v 7.39 10.0 19.38
v 7.73 6.59 19.38
v 8.7 3.59 19.38
v 10.19 1.36 19.38
v 12.03 0.18 19.38
v 13.97 0.18 19.38
v 15.81 1.36 19.38
v 17.3 3.59 19.38
v 18.27 6.59 19.38
v 20.04 10.0 17.48
v 19.61 14.28 17.48
v 18.39 18.04 17.48
v 16.52 20.83 17.48
v 14.22 22.32 17.48
v 11.78 22.32 17.48
v 9.48 20.83 17.48
v 7.61 18.04 17.48
v 6.39 14.28 17.48
v 5.96 10.0 17.48
v 6.39 5.72 17.48
v 7.61 1.96 17.48
v 9.48 -0.83 17.48
v 11.78 -2.32 17.48
v 14.22 -2.32 17.48
v 16.52 -0.83 17.48
v 18.39 1.96 17.48
v 19.61 5.72 17.48
v 21.11 10.0 15.21
v 20.62 14.93 15.21
v 19.21 19.27 15.21
v 17.05 22.48 15.21
v 14.41 24.2 15.21
v 11.59 24.2 15.21
v 8.95 22.48 15.21
v 6.79 19.27 15.21
v 5.38 14.93 15.21
v 4.89 10.0 15.21
v 5.38 5.07 15.21
v 6.79 0.73 15.21
v 8.95 -2.48 15.21
v 11.59 -4.2 15.21
v 14.41 -4.2 15.21
v 17.05 -2.48 15.21
v 19.21 0.73 15.21
v 20.62 5.07 15.21
v 21.77 10.0 12.67
v 21.25 15.34 12.67
v 19.72 20.03 12.67
v 17.39 23.51 12.67
v 14.52 25.36 12.67
v 11.48 25.36 12.67
v 8.61 23.51 12.67
v 6.28 20.03 12.67
v 4.75 15.34 12.67
v 4.23 10.0 12.67
v 4.75 4.66 12.67
v 6.28 -0.03 12.67
v 8.61 -3.51 12.67
v 11.48 -5.36 12.67
v 14.52 -5.36 12.67
v 17.39 -3.51 12.67
v 19.72 -0.03 12.67
v 21.25 4.66 12.67
v 22.0 10.0 10.0
v 21.46 15.47 10.0
v 19.89 20.28 10.0
v 17.5 23.86 10.0
v 14.56 25.76 10.0
v 11.44 25.76 10.0
v 8.5 23.86 10.0
v 6.11 20.28 10.0
v 4.54 15.47 10.0
v 4.0 10.0 10.0
v 4.54 4.53 10.0
v 6.11 -0.28 10.0
v 8.5 -3.86 10.0
v 11.44 -5.76 10.0
v 14.56 -5.76 10.0
v 17.5 -3.86 10.0
v 19.89 -0.28 10.0
v 21.46 4.53 10.0
v 21.77 10.0 7.33
v 21.25 15.34 7.33
v 19.72 20.03 7.33
v 17.39 23.51 7.33
v 14.52 25.36 7.33
v 11.48 25.36 7.33
v 8.61 23.51 7.33
v 6.28 20.03 7.33
v 4.75 15.34 7.33
v 4.23 10.0 7.33
v 4.75 4.66 7.33
v 6.28 -0.03 7.33
v 8.61 -3.51 7.33
v 11.48 -5.36 7.33
v 14.52 -5.36 7.33
v 17.39 -3.51 7.33
v 19.72 -0.03 7.33
v 21.25 4.66 7.33
v 21.11 10.0 4.79
v 20.62 14.93 4.79
v 19.21 19.27 4.79
v 17.05 22.48 4.79
v 14.41 24.2 4.79
v 11.59 24.2 4.79
v 8.95 22.48 4.79
v 6.79 19.27 4.79
v 5.38 14.93 4.79
v 4.89 10.0 4.79
v 5.38 5.07 4.79
v 6.79 0.73 4.79
v 8.95 -2.48 4.79
v 11.59 -4.2 4.79
v 14.41 -4.2 4.79
v 17.05 -2.48 4.79
v 19.21 0.73 4.79
v 20.62 5.07 4.79
v 20.04 10.0 2.52
v 19.61 14.28 2.52
v 18.39 18.04 2.52
v 16.52 20.83 2.52
v 14.22 22.32 2.52
v 11.78 22.32 2.52
v 9.48 20.83 2.52
v 7.61 18.04 2.52
v 6.39 14.28 2.52
v 5.96 10.0 2.52
v 6.39 5.72 2.52
v 7.61 1.96 2.52
v 9.48 -0.83 2.52
v 11.78 -2.32 2.52
v 14.22 -2.32 2.52
v 16.52 -0.83 2.52
v 18.39 1.96 2.52
v 19.61 5.72 2.52
v 18.61 10.0 0.62
v 18.27 13.41 0.62
v 17.3 16.41 0.62
v 15.81 18.64 0.62
v 13.97 19.82 0.62
v 12.03 19.82 0.62
v 10.19 18.64 0.62
v 8.7 16.41 0.62
v 7.73 13.41 0.62
v 7.39 10.0 0.62
v 7.73 6.59 0.62
v 8.7 3.59 0.62
v 10.19 1.36 0.62
v 12.03 0.18 0.62
v 13.97 0.18 0.62
v 15.81 1.36 0.62
v 17.3 3.59 0.62
v 18.27 6.59 0.62
v 16.9 10.0 -0.81
v 16.67 12.37 -0.81
v 15.99 14.46 -0.81
v 14.95 16.01 -0.81
v 13.68 16.84 -0.81
v 12.32 16.84 -0.81
v 11.05 16.01 -0.81
v 10.01 14.46 -0.81
v 9.33 12.37 -0.81
v 9.1 10.0 -0.81
v 9.33 7.63 -0.81
v 10.01 5.54 -0.81
v 11.05 3.99 -0.81
v 12.32 3.16 -0.81
v 13.68 3.16 -0.81
v 14.95 3.99 -0.81
v 15.99 5.54 -0.81
v 16.67 7.63 -0.81
v 15.0 10.0 -1.7
v 14.88 11.22 -1.7
v 14.53 12.29 -1.7
v 14.0 13.08 -1.7
v 13.35 13.51 -1.7
v 12.65 13.51 -1.7
v 12.0 13.08 -1.7
v 11.47 12.29 -1.7
v 11.12 11.22 -1.7
v 11.0 10.0 -1.7
v 11.12 8.78 -1.7
v 11.47 7.71 -1.7
v 12.0 6.92 -1.7
v 12.65 6.49 -1.7
v 13.35 6.49 -1.7
v 14.0 6.92 -1.7
v 14.53 7.71 -1.7
v 14.88 8.78 -1.7
v 13.0 10.0 -2.0
v 13.0 10.0 -2.0
v 13.0 10.0 -2.0
v 13.0 10.0 -2.0
v 13.0 10.0 -2.0
v 13.0 10.0 -2.0
v 13.0 10.0 -2.0
v 13.0 10.0 -2.0
v 13.0 10.0 -2.0
v 13.0 10.0 -2.0
v 13.0 10.0 -2.0
v 13.0 10.0 -2.0
v 13.0 10.0 -2.0
v 13.0 10.0 -2.0
v 13.0 10.0 -2.0
v 13.0 10.0 -2.0
v 13.0 10.0 -2.0
v 13.0 10.0 -2.0
f 1 2 20
f 1 20 19
f 2 3 21
f 2 21 20
f 3 4 22
f 3 22 21
f 4 5 23
f 4 23 22
f 5 6 24
f 5 24 23
f 6 7 25
f 6 25 24
f 7 8 26
f 7 26 25
f 8 9 27
f 8 27 26
f 9 10 28
f 9 28 27
f 10 11 29
f 10 29 28
f 11 12 30
f 11 30 29
f 12 13 31
f 12 31 30
f 13 14 32
f 13 32 31
f 14 15 33
f 14 33 32
f 15 16 34
f 15 34 33
f 16 17 35
f 16 35 34
f 17 18 36
f 17 36 35
f 18 1 19
f 18 19 36
f 19 20 38
f 19 38 37
f 20 21 39
f 20 39 38
f 21 22 40
f 21 40 39
f 22 23 41
f 22 41 40
f 23 24 42
f 23 42 41
f 24 25 43
f 24 43 42
f 25 26 44
f 25 44 43
f 26 27 45
f 26 45 44
f 27 28 46
f 27 46 45
f 28 29 47
f 28 47 46
f 29 30 48
f 29 48 47
f 30 31 49
f 30 49 48
f 31 32 50
f 31 50 49
f 32 33 51
f 32 51 50
f 33 34 52
f 33 52 51
f 34 35 53
f 34 53 52
f 35 36 54
f 35 54 53
f 36 19 37
f 36 37 54
f 37 38 56
f 37 56 55
f 38 39 57
f 38 57 56
f 39 40 58
f 39 58 57
f 40 41 59
f 40 59 58
f 41 42 60
f 41 60 59
f 42 43 61
f 42 61 60
f 43 44 62
f 43 62 61
f 44 45 63
f 44 63 62
f 45 46 64
f 45 64 63
f 46 47 65
f 46 65 64
f 47 48 66
f 47 66 65
f 48 49 67
f 48 67 66
f 49 50 68
f 49 68 67
f 50 51 69
f 50 69 68
f 51 52 70
f 51 70 69
f 52 53 71
f 52 71 70
f 53 54 72
f 53 72 71
f 54 37 55
f 54 55 72
f 55 56 74
f 55 74 73
f 56 57 75
f 56 75 74
f 57 58 76
f 57 76 75
f 58 59 77
f 58 77 76
f 59 60 78
f 59 78 77
f 60 61 79
f 60 79 78
f 61 62 80
f 61 80 79
f 62 63 81
f 62 81 80
f 63 64 82
f 63 82 81
f 64 65 83
f 64 83 82
f 65 66 84
f 65 84 83
f 66 67 85
f 66 85 84
f 67 68 86
f 67 86 85
f 68 69 87
f 68 87 86
f 69 70 88
f 69 88 87
f 70 71 89
f 70 89 88
f 71 72 90
f 71 90 89
f 72 55 73
f 72 73 90
f 73 74 92
f 73 92 91
f 74 75 93
f 74 93 92
f 75 76 94
f 75 94 93
f 76 77 95
f 76 95 94
f 77 78 96
f 77 96 95
f 78 79 97
f 78 97 96
f 79 80 98
f 79 98 97
f 80 81 99
f 80 99 98
f 81 82 100
f 81 100 99
f 82 83 101
f 82 101 100
f 83 84 102
f 83 102 101
f 84 85 103
f 84 103 102
f 85 86 104
f 85 104 103
f 86 87 105
f 86 105 104
f 87 88 106
f 87 106 105
f 88 89 107
f 88 107 106
f 89 90 108
f 89 108 107
f 90 73 91
f 90 91 108
f 91 92 110
f 91 110 109
f 92 93 111
f 92 111 110
f 93 94 112
f 93 112 111
f 94 95 113
f 94 113 112
f 95 96 114
f 95 114 113
f 96 97 115
f 96 115 114
f 97 98 116
f 97 116 115
f 98 99 117
f 98 117 116
f 99 100 118
f 99 118 117
f 100 101 119
f 100 119 118
f 101 102 120
f 101 120 119
f 102 103 121
f 102 121 120
f 103 104 122
f 103 122 121
f 104 105 123
f 104 123 122
f 105 106 124
f 105 124 123
f 106 107 125
f 106 125 124
f 107 108 126
f 107 126 125
f 108 91 109
f 108 109 126
f 109 110 128
f 109 128 127
f 110 111 129
f 110 129 128
f 111 112 130
f 111 130 129
f 112 113 131
f 112 131 130
f 113 114 132
f 113 132 131
f 114 115 133
f 114 133 132
f 115 116 134
f 115 134 133
f 116 117 135
f 116 135 134
f 117 118 136
f 117 136 135
f 118 119 137
f 118 137 136
f 119 120 138
f 119 138 137
f 120 121 139
f 120 139 138
f 121 122 140
f 121 140 139
f 122 123 141
f 122 141 140
f 123 124 142
f 123 142 141
f 124 125 143
f 124 143 142
f 125 126 144
f 125 144 143
f 126 109 127
f 126 127 144
f 127 128 146
f 127 146 145
f 128 129 147
f 128 147 146
f 129 130 148
f 129 148 147
f 130 131 149
f 130 149 148
f 131 132 150
f 131 150 149
f 132 133 151
f 132 151 150
f 133 134 152
f 133 152 151
f 134 135 153
f 134 153 152
f 135 136 154
f 135 154 153
f 136 137 155
f 136 155 154
f 137 138 156
f 137 156 155
f 138 139 157
f 138 157 156
f 139 140 158
f 139 158 157
f 140 141 159
f 140 159 158
f 141 142 160
f 141 160 159
f 142 143 161
f 142 161 160
f 143 144 162
f 143 162 161
f 144 127 145
f 144 145 162
f 145 146 164
f 145 164 163
f 146 147 165
f 146 165 164
f 147 148 166
f 147 166 165
f 148 149 167
f 148 167 166
f 149 150 168
f 149 168 167
f 150 151 169
f 150 169 168
f 151 152 170
f 151 170 169
f 152 153 171
f 152 171 170
f 153 154 172
f 153 172 171
f 154 155 173
f 154 173 172
f 155 156 174
f 155 174 173
f 156 157 175
f 156 175 174
f 157 158 176
f 157 176 175
f 158 159 177
f 158 177 176
f 159 160 178
f 159 178 177
f 160 161 179
f 160 179 178
f 161 162 180
f 161 180 179
f 162 145 163
f 162 163 180
f 163 164 182
f 163 182 181
f 164 165 183
f 164 183 182
f 165 166 184
f 165 184 183
f 166 167 185
f 166 185 184
f 167 168 186
f 167 186 185
f 168 169 187
f 168 187 186
f 169 170 188
f 169 188 187
f 170 171 189
f 170 189 188
f 171 172 190
f 171 190 189
f 172 173 191
f 172 191 190
f 173 174 192
f 173 192 191
f 174 175 193
f 174 193 192
f 175 176 194
f 175 194 193
f 176 177 195
f 176 195 194
f 177 178 196
f 177 196 195
f 178 179 197
f 178 197 196
f 179 180 198
f 179 198 197
f 180 163 181
f 180 181 198
f 181 182 200
f 181 200 199
f 182 183 201
f 182 201 200
f 183 184 202
f 183 202 201
f 184 185 203
f 184 203 202
f 185 186 204
f 185 204 203
f 186 187 205
f 186 205 204
f 187 188 206
f 187 206 205
f 188 189 207
f 188 207 206
f 189 190 208
f 189 208 207
f 190 191 209
f 190 209 208
f 191 192 210
f 191 210 209
f 192 193 211
f 192 211 210
f 193 194 212
f 193 212 211
f 194 195 213
f 194 213 212
f 195 196 214
f 195 214 213
f 196 197 215
f 196 215 214
f 197 198 216
f 197 216 215
f 198 181 199
f 198 199 216
f 199 200 218
f 199 218 217
f 200 201 219
f 200 219 218
f 201 202 220
f 201 220 219
f 202 203 221
f 202 221 220
f 203 204 222
f 203 222 221
f 204 205 223
f 204 223 222
f 205 206 224
f 205 224 223
f 206 207 225
f 206 225 224
f 207 208 226
f 207 226 225
f 208 209 227
f 208 227 226
f 209 210 228
f 209 228 227
f 210 211 229
f 210 229 228
f 211 212 230
f 211 230 229
f 212 213 231
f 212 231 230
f 213 214 232
f 213 232 231
f 214 215 233
f 214 233 232
f 215 216 234
f 215 234 233
f 216 199 217
f 216 217 234
f 217 218 236
f 217 236 235
f 218 219 237
f 218 237 236
f 219 220 238
f 219 238 237
f 220 221 239
f 220 239 238
f 221 222 240
f 221 240 239
f 222 223 241
f 222 241 240
f 223 224 242
f 223 242 241
f 224 225 243
f 224 243 242
f 225 226 244
f 225 244 243
f 226 227 245
f 226 245 244
f 227 228 246
f 227 246 245
f 228 229 247
f 228 247 246
f 229 230 248
f 229 248 247
f 230 231 249
f 230 249 248
f 231 232 250
f 231 250 249
f 232 233 251
f 232 251 250
f 233 234 252
f 233 252 251
f 234 217 235
f 234 235 252
f 235 236 254
f 235 254 253
f 236 237 255
f 236 255 254
f 237 238 256
f 237 256 255
f 238 239 257
f 238 257 256
f 239 240 258
f 239 258 257
f 240 241 259
f 240 259 258
f 241 242 260
f 241 260 259
f 242 243 261
f 242 261 260
f 243 244 262
f 243 262 261
f 244 245 263
f 244 263 262
f 245 246 264
f 245 264 263
f 246 247 265
f 246 265 264
f 247 248 266
f 247 266 265
f 248 249 267
f 248 267 266
f 249 250 268
f 249 268 267
f 250 251 269
f 250 269 268
f 251 252 270
f 251 270 269
f 252 235 253
f 252 253 270
